<mxfile host="app.diagrams.net" modified="2023-07-25T11:15:58.435Z" agent="Mozilla/5.0 (Windows NT 10.0; Win64; x64) AppleWebKit/537.36 (KHTML, like Gecko) Chrome/114.0.0.0 Safari/537.36" etag="jCxsL9fhALGkWVK5WfRT" version="21.6.5" type="device">
  <diagram name="PÃ¡gina-1" id="jA6Oxt-dXr1OLnOuJT5u">
    <mxGraphModel dx="1050" dy="523" grid="1" gridSize="10" guides="1" tooltips="1" connect="1" arrows="1" fold="1" page="1" pageScale="1" pageWidth="827" pageHeight="1169" math="0" shadow="0">
      <root>
        <mxCell id="0" />
        <mxCell id="1" parent="0" />
        <mxCell id="_HcAuzz221pehIrWNPhE-7" style="edgeStyle=orthogonalEdgeStyle;rounded=0;orthogonalLoop=1;jettySize=auto;html=1;entryX=0;entryY=0.5;entryDx=0;entryDy=0;endArrow=none;endFill=0;" edge="1" parent="1" source="_HcAuzz221pehIrWNPhE-1" target="_HcAuzz221pehIrWNPhE-6">
          <mxGeometry relative="1" as="geometry" />
        </mxCell>
        <mxCell id="_HcAuzz221pehIrWNPhE-16" style="edgeStyle=orthogonalEdgeStyle;rounded=0;orthogonalLoop=1;jettySize=auto;html=1;entryX=0.5;entryY=1;entryDx=0;entryDy=0;endArrow=none;endFill=0;" edge="1" parent="1" source="_HcAuzz221pehIrWNPhE-1" target="_HcAuzz221pehIrWNPhE-4">
          <mxGeometry relative="1" as="geometry" />
        </mxCell>
        <mxCell id="_HcAuzz221pehIrWNPhE-1" value="Pessoa" style="rounded=0;whiteSpace=wrap;html=1;" vertex="1" parent="1">
          <mxGeometry x="160" y="180" width="120" height="60" as="geometry" />
        </mxCell>
        <mxCell id="_HcAuzz221pehIrWNPhE-2" value="Telefone" style="rounded=0;whiteSpace=wrap;html=1;" vertex="1" parent="1">
          <mxGeometry x="430" y="50" width="120" height="60" as="geometry" />
        </mxCell>
        <mxCell id="_HcAuzz221pehIrWNPhE-3" value="Email" style="rounded=0;whiteSpace=wrap;html=1;" vertex="1" parent="1">
          <mxGeometry x="430" y="300" width="120" height="60" as="geometry" />
        </mxCell>
        <mxCell id="_HcAuzz221pehIrWNPhE-4" value="CNH" style="ellipse;whiteSpace=wrap;html=1;" vertex="1" parent="1">
          <mxGeometry x="200" y="100" width="40" height="25" as="geometry" />
        </mxCell>
        <mxCell id="_HcAuzz221pehIrWNPhE-11" style="edgeStyle=orthogonalEdgeStyle;rounded=0;orthogonalLoop=1;jettySize=auto;html=1;entryX=0;entryY=0.5;entryDx=0;entryDy=0;endArrow=none;endFill=0;" edge="1" parent="1" source="_HcAuzz221pehIrWNPhE-6" target="_HcAuzz221pehIrWNPhE-2">
          <mxGeometry relative="1" as="geometry" />
        </mxCell>
        <mxCell id="_HcAuzz221pehIrWNPhE-12" style="edgeStyle=orthogonalEdgeStyle;rounded=0;orthogonalLoop=1;jettySize=auto;html=1;entryX=0;entryY=0.5;entryDx=0;entryDy=0;endArrow=none;endFill=0;" edge="1" parent="1" source="_HcAuzz221pehIrWNPhE-6" target="_HcAuzz221pehIrWNPhE-3">
          <mxGeometry relative="1" as="geometry" />
        </mxCell>
        <mxCell id="_HcAuzz221pehIrWNPhE-6" value="possui" style="rhombus;whiteSpace=wrap;html=1;" vertex="1" parent="1">
          <mxGeometry x="350" y="170" width="80" height="80" as="geometry" />
        </mxCell>
        <mxCell id="_HcAuzz221pehIrWNPhE-13" value="1" style="text;html=1;align=center;verticalAlign=middle;resizable=0;points=[];autosize=1;strokeColor=none;fillColor=none;" vertex="1" parent="1">
          <mxGeometry x="275" y="180" width="30" height="30" as="geometry" />
        </mxCell>
        <mxCell id="_HcAuzz221pehIrWNPhE-14" value="N" style="text;html=1;align=center;verticalAlign=middle;resizable=0;points=[];autosize=1;strokeColor=none;fillColor=none;" vertex="1" parent="1">
          <mxGeometry x="405" y="58" width="30" height="30" as="geometry" />
        </mxCell>
        <mxCell id="_HcAuzz221pehIrWNPhE-15" value="N" style="text;html=1;align=center;verticalAlign=middle;resizable=0;points=[];autosize=1;strokeColor=none;fillColor=none;" vertex="1" parent="1">
          <mxGeometry x="405" y="300" width="30" height="30" as="geometry" />
        </mxCell>
      </root>
    </mxGraphModel>
  </diagram>
</mxfile>
